# xmcd
#
# Track frame offsets:
#	150
#	21300
#	41175
#	53075
#	72925
#	85825
#	99762
#	113987
#	136325
#	154562
#
# Disc length: 2259
#
# Revision: 1
# Processed by: cddbd v1.5.2PL0 Copyright (c) Steve Scherf et al.
# Submitted via: Broken Cross Disk Manager 3.94.2201
#
DISCID=7c08d10a
DTITLE=Gary P. Nunn - Border States
DYEAR=1988
DGENRE=
TTITLE0=What I Like About Texas
TTITLE1=I Taught Her Everything She Knows
TTITLE2=Too Many naights In A Roadhouse
TTITLE3=The Money's No Good
TTITLE4=Lesson To Be Learned From Love
TTITLE5=Think I'll Go To Mexico
TTITLE6=Town And Country Taverns
TTITLE7=Old Fashion Love
TTITLE8=Alamogordo
TTITLE9=The Old Home Place
EXTD=
EXTT0=
EXTT1=
EXTT2=
EXTT3=
EXTT4=
EXTT5=
EXTT6=
EXTT7=
EXTT8=
EXTT9=
PLAYORDER=
